<mxfile host="app.diagrams.net" agent="Mozilla/5.0 (X11; Ubuntu; Linux x86_64; rv:135.0) Gecko/20100101 Firefox/135.0" version="26.0.16">
  <diagram name="Page-1" id="RpSpAAgxWJO302FIfFWW">
    <mxGraphModel dx="1386" dy="790" grid="1" gridSize="10" guides="1" tooltips="1" connect="1" arrows="1" fold="1" page="1" pageScale="1" pageWidth="850" pageHeight="1100" math="0" shadow="0">
      <root>
        <mxCell id="0" />
        <mxCell id="1" parent="0" />
        <mxCell id="5G5CSJDKPbzKHUEFAz9M-2" value="&lt;div&gt;Windows Server&lt;/div&gt;&lt;div&gt;&lt;br&gt;&lt;/div&gt;" style="sketch=0;outlineConnect=0;fontColor=#232F3E;gradientColor=none;fillColor=#232F3D;strokeColor=none;dashed=0;verticalLabelPosition=bottom;verticalAlign=top;align=center;html=1;fontSize=12;fontStyle=0;aspect=fixed;pointerEvents=1;shape=mxgraph.aws4.traditional_server;" vertex="1" parent="1">
          <mxGeometry x="674" y="82" width="45" height="78" as="geometry" />
        </mxCell>
        <mxCell id="5G5CSJDKPbzKHUEFAz9M-5" style="edgeStyle=orthogonalEdgeStyle;rounded=0;orthogonalLoop=1;jettySize=auto;html=1;" edge="1" parent="1" source="5G5CSJDKPbzKHUEFAz9M-3" target="5G5CSJDKPbzKHUEFAz9M-2">
          <mxGeometry relative="1" as="geometry" />
        </mxCell>
        <mxCell id="5G5CSJDKPbzKHUEFAz9M-3" value="Internet" style="ellipse;shape=cloud;whiteSpace=wrap;html=1;align=center;" vertex="1" parent="1">
          <mxGeometry x="394" y="91" width="100" height="60" as="geometry" />
        </mxCell>
        <mxCell id="5G5CSJDKPbzKHUEFAz9M-4" style="edgeStyle=orthogonalEdgeStyle;rounded=0;orthogonalLoop=1;jettySize=auto;html=1;exitX=0.92;exitY=0.5;exitDx=0;exitDy=0;exitPerimeter=0;" edge="1" parent="1" source="5G5CSJDKPbzKHUEFAz9M-23">
          <mxGeometry relative="1" as="geometry">
            <mxPoint x="159" y="121.10000000000002" as="sourcePoint" />
            <mxPoint x="400" y="120" as="targetPoint" />
          </mxGeometry>
        </mxCell>
        <mxCell id="5G5CSJDKPbzKHUEFAz9M-26" value="RDP Brute Force" style="edgeLabel;html=1;align=center;verticalAlign=middle;resizable=0;points=[];" vertex="1" connectable="0" parent="5G5CSJDKPbzKHUEFAz9M-4">
          <mxGeometry x="-0.1102" y="2" relative="1" as="geometry">
            <mxPoint x="3" as="offset" />
          </mxGeometry>
        </mxCell>
        <mxCell id="5G5CSJDKPbzKHUEFAz9M-17" value="&lt;div&gt;Windows Server&lt;/div&gt;&lt;div&gt;&lt;br&gt;&lt;/div&gt;" style="sketch=0;outlineConnect=0;fontColor=#232F3E;gradientColor=none;fillColor=#232F3D;strokeColor=none;dashed=0;verticalLabelPosition=bottom;verticalAlign=top;align=center;html=1;fontSize=12;fontStyle=0;aspect=fixed;pointerEvents=1;shape=mxgraph.aws4.traditional_server;" vertex="1" parent="1">
          <mxGeometry x="674" y="199" width="45" height="78" as="geometry" />
        </mxCell>
        <mxCell id="5G5CSJDKPbzKHUEFAz9M-18" style="edgeStyle=orthogonalEdgeStyle;rounded=0;orthogonalLoop=1;jettySize=auto;html=1;" edge="1" source="5G5CSJDKPbzKHUEFAz9M-19" target="5G5CSJDKPbzKHUEFAz9M-17" parent="1">
          <mxGeometry relative="1" as="geometry" />
        </mxCell>
        <mxCell id="5G5CSJDKPbzKHUEFAz9M-19" value="Internet" style="ellipse;shape=cloud;whiteSpace=wrap;html=1;align=center;" vertex="1" parent="1">
          <mxGeometry x="394" y="205" width="100" height="60" as="geometry" />
        </mxCell>
        <mxCell id="5G5CSJDKPbzKHUEFAz9M-21" value="&lt;div&gt;&lt;b&gt;Phase 1&lt;/b&gt;&lt;/div&gt;&lt;div&gt;&lt;b&gt;Initial Access&lt;/b&gt;&lt;/div&gt;" style="text;html=1;align=center;verticalAlign=middle;whiteSpace=wrap;rounded=0;" vertex="1" parent="1">
          <mxGeometry x="390" y="50" width="80" height="30" as="geometry" />
        </mxCell>
        <mxCell id="5G5CSJDKPbzKHUEFAz9M-23" value="&lt;div&gt;Attacker Laptop&lt;/div&gt;&lt;div&gt;Kali&lt;/div&gt;" style="verticalLabelPosition=bottom;html=1;verticalAlign=top;align=center;strokeColor=none;fillColor=#CC0000;shape=mxgraph.azure.laptop;pointerEvents=1;" vertex="1" parent="1">
          <mxGeometry x="94" y="94" width="90" height="54" as="geometry" />
        </mxCell>
        <mxCell id="5G5CSJDKPbzKHUEFAz9M-25" style="edgeStyle=orthogonalEdgeStyle;rounded=0;orthogonalLoop=1;jettySize=auto;html=1;" edge="1" parent="1" source="5G5CSJDKPbzKHUEFAz9M-24" target="5G5CSJDKPbzKHUEFAz9M-19">
          <mxGeometry relative="1" as="geometry" />
        </mxCell>
        <mxCell id="5G5CSJDKPbzKHUEFAz9M-27" value="&lt;span style=&quot;color: light-dark(rgb(38, 162, 105), rgb(237, 237, 237));&quot;&gt;&lt;b&gt;Successful Authentication&lt;/b&gt;&lt;/span&gt;" style="edgeLabel;html=1;align=center;verticalAlign=middle;resizable=0;points=[];" vertex="1" connectable="0" parent="5G5CSJDKPbzKHUEFAz9M-25">
          <mxGeometry x="-0.0167" y="1" relative="1" as="geometry">
            <mxPoint as="offset" />
          </mxGeometry>
        </mxCell>
        <mxCell id="5G5CSJDKPbzKHUEFAz9M-24" value="&lt;div&gt;Attacker Laptop&lt;/div&gt;&lt;div&gt;Kali&lt;/div&gt;" style="verticalLabelPosition=bottom;html=1;verticalAlign=top;align=center;strokeColor=none;fillColor=#CC0000;shape=mxgraph.azure.laptop;pointerEvents=1;" vertex="1" parent="1">
          <mxGeometry x="94" y="211" width="90" height="54" as="geometry" />
        </mxCell>
        <mxCell id="5G5CSJDKPbzKHUEFAz9M-28" value="&lt;div&gt;&lt;b&gt;Phase 2&lt;/b&gt;&lt;/div&gt;&lt;div&gt;&lt;b&gt;Discovery&lt;/b&gt;&lt;/div&gt;" style="text;html=1;align=center;verticalAlign=middle;whiteSpace=wrap;rounded=0;" vertex="1" parent="1">
          <mxGeometry x="390" y="319" width="80" height="30" as="geometry" />
        </mxCell>
        <mxCell id="5G5CSJDKPbzKHUEFAz9M-29" value="&lt;div&gt;Windows Server&lt;/div&gt;&lt;div&gt;&lt;br&gt;&lt;/div&gt;" style="sketch=0;outlineConnect=0;fontColor=#232F3E;gradientColor=none;fillColor=#232F3D;strokeColor=none;dashed=0;verticalLabelPosition=bottom;verticalAlign=top;align=center;html=1;fontSize=12;fontStyle=0;aspect=fixed;pointerEvents=1;shape=mxgraph.aws4.traditional_server;" vertex="1" parent="1">
          <mxGeometry x="674" y="360" width="45" height="78" as="geometry" />
        </mxCell>
        <mxCell id="5G5CSJDKPbzKHUEFAz9M-30" style="edgeStyle=orthogonalEdgeStyle;rounded=0;orthogonalLoop=1;jettySize=auto;html=1;" edge="1" source="5G5CSJDKPbzKHUEFAz9M-31" target="5G5CSJDKPbzKHUEFAz9M-29" parent="1">
          <mxGeometry relative="1" as="geometry" />
        </mxCell>
        <mxCell id="5G5CSJDKPbzKHUEFAz9M-31" value="Internet" style="ellipse;shape=cloud;whiteSpace=wrap;html=1;align=center;" vertex="1" parent="1">
          <mxGeometry x="404" y="369" width="100" height="60" as="geometry" />
        </mxCell>
        <mxCell id="5G5CSJDKPbzKHUEFAz9M-32" style="edgeStyle=orthogonalEdgeStyle;rounded=0;orthogonalLoop=1;jettySize=auto;html=1;" edge="1" source="5G5CSJDKPbzKHUEFAz9M-34" target="5G5CSJDKPbzKHUEFAz9M-31" parent="1">
          <mxGeometry relative="1" as="geometry" />
        </mxCell>
        <mxCell id="5G5CSJDKPbzKHUEFAz9M-33" value="Discovery" style="edgeLabel;html=1;align=center;verticalAlign=middle;resizable=0;points=[];" vertex="1" connectable="0" parent="5G5CSJDKPbzKHUEFAz9M-32">
          <mxGeometry x="-0.0167" y="1" relative="1" as="geometry">
            <mxPoint y="-3" as="offset" />
          </mxGeometry>
        </mxCell>
        <mxCell id="5G5CSJDKPbzKHUEFAz9M-34" value="&lt;div&gt;Attacker Laptop&lt;/div&gt;&lt;div&gt;Kali&lt;/div&gt;" style="verticalLabelPosition=bottom;html=1;verticalAlign=top;align=center;strokeColor=none;fillColor=#CC0000;shape=mxgraph.azure.laptop;pointerEvents=1;" vertex="1" parent="1">
          <mxGeometry x="104" y="372" width="90" height="54" as="geometry" />
        </mxCell>
        <mxCell id="5G5CSJDKPbzKHUEFAz9M-36" value="&lt;div&gt;nslookup&lt;/div&gt;&lt;div&gt;whoami&lt;/div&gt;&lt;div&gt;netstat&lt;/div&gt;&lt;div&gt;ipconfig&lt;/div&gt;&lt;div&gt;netuser&lt;/div&gt;&lt;div&gt;netgroup&lt;/div&gt;" style="text;html=1;align=center;verticalAlign=middle;whiteSpace=wrap;rounded=0;" vertex="1" parent="1">
          <mxGeometry x="414" y="463" width="60" height="30" as="geometry" />
        </mxCell>
        <mxCell id="5G5CSJDKPbzKHUEFAz9M-37" value="&lt;div&gt;&lt;b&gt;Phase 3&lt;/b&gt;&lt;/div&gt;&lt;div&gt;&lt;b&gt;Defense Evasion&lt;/b&gt;&lt;/div&gt;&lt;div&gt;&lt;b&gt;&lt;br&gt;&lt;/b&gt;&lt;/div&gt;" style="text;html=1;align=center;verticalAlign=middle;whiteSpace=wrap;rounded=0;" vertex="1" parent="1">
          <mxGeometry x="390" y="544" width="100" height="30" as="geometry" />
        </mxCell>
        <mxCell id="5G5CSJDKPbzKHUEFAz9M-38" value="&lt;div&gt;Windows Server&lt;/div&gt;&lt;div&gt;&lt;br&gt;&lt;/div&gt;" style="sketch=0;outlineConnect=0;fontColor=#232F3E;gradientColor=none;fillColor=#232F3D;strokeColor=none;dashed=0;verticalLabelPosition=bottom;verticalAlign=top;align=center;html=1;fontSize=12;fontStyle=0;aspect=fixed;pointerEvents=1;shape=mxgraph.aws4.traditional_server;" vertex="1" parent="1">
          <mxGeometry x="675" y="587" width="45" height="78" as="geometry" />
        </mxCell>
        <mxCell id="5G5CSJDKPbzKHUEFAz9M-39" style="edgeStyle=orthogonalEdgeStyle;rounded=0;orthogonalLoop=1;jettySize=auto;html=1;" edge="1" source="5G5CSJDKPbzKHUEFAz9M-40" target="5G5CSJDKPbzKHUEFAz9M-38" parent="1">
          <mxGeometry relative="1" as="geometry" />
        </mxCell>
        <mxCell id="5G5CSJDKPbzKHUEFAz9M-45" value="Disable Defender" style="edgeLabel;html=1;align=center;verticalAlign=middle;resizable=0;points=[];" vertex="1" connectable="0" parent="5G5CSJDKPbzKHUEFAz9M-39">
          <mxGeometry x="-0.0711" y="-3" relative="1" as="geometry">
            <mxPoint y="-3" as="offset" />
          </mxGeometry>
        </mxCell>
        <mxCell id="5G5CSJDKPbzKHUEFAz9M-40" value="Internet" style="ellipse;shape=cloud;whiteSpace=wrap;html=1;align=center;" vertex="1" parent="1">
          <mxGeometry x="405" y="596" width="100" height="60" as="geometry" />
        </mxCell>
        <mxCell id="5G5CSJDKPbzKHUEFAz9M-41" style="edgeStyle=orthogonalEdgeStyle;rounded=0;orthogonalLoop=1;jettySize=auto;html=1;" edge="1" source="5G5CSJDKPbzKHUEFAz9M-43" target="5G5CSJDKPbzKHUEFAz9M-40" parent="1">
          <mxGeometry relative="1" as="geometry" />
        </mxCell>
        <mxCell id="5G5CSJDKPbzKHUEFAz9M-42" value="RDP " style="edgeLabel;html=1;align=center;verticalAlign=middle;resizable=0;points=[];" vertex="1" connectable="0" parent="5G5CSJDKPbzKHUEFAz9M-41">
          <mxGeometry x="-0.0167" y="1" relative="1" as="geometry">
            <mxPoint as="offset" />
          </mxGeometry>
        </mxCell>
        <mxCell id="5G5CSJDKPbzKHUEFAz9M-43" value="&lt;div&gt;Attacker Laptop&lt;/div&gt;&lt;div&gt;Kali&lt;/div&gt;" style="verticalLabelPosition=bottom;html=1;verticalAlign=top;align=center;strokeColor=none;fillColor=#CC0000;shape=mxgraph.azure.laptop;pointerEvents=1;" vertex="1" parent="1">
          <mxGeometry x="115" y="599" width="90" height="54" as="geometry" />
        </mxCell>
        <mxCell id="5G5CSJDKPbzKHUEFAz9M-46" value="&lt;div&gt;&lt;b&gt;Phase 4&lt;/b&gt;&lt;/div&gt;&lt;div&gt;&lt;b&gt;Execution&lt;/b&gt;&lt;/div&gt;" style="text;html=1;align=center;verticalAlign=middle;whiteSpace=wrap;rounded=0;" vertex="1" parent="1">
          <mxGeometry x="390" y="705" width="100" height="30" as="geometry" />
        </mxCell>
        <mxCell id="5G5CSJDKPbzKHUEFAz9M-52" style="edgeStyle=orthogonalEdgeStyle;rounded=0;orthogonalLoop=1;jettySize=auto;html=1;" edge="1" parent="1" source="5G5CSJDKPbzKHUEFAz9M-48" target="5G5CSJDKPbzKHUEFAz9M-60">
          <mxGeometry relative="1" as="geometry">
            <mxPoint x="684" y="781.0999999999999" as="targetPoint" />
          </mxGeometry>
        </mxCell>
        <mxCell id="5G5CSJDKPbzKHUEFAz9M-58" value="Mythic Agent" style="edgeLabel;html=1;align=center;verticalAlign=middle;resizable=0;points=[];" vertex="1" connectable="0" parent="5G5CSJDKPbzKHUEFAz9M-52">
          <mxGeometry x="-0.0783" relative="1" as="geometry">
            <mxPoint x="7" as="offset" />
          </mxGeometry>
        </mxCell>
        <mxCell id="5G5CSJDKPbzKHUEFAz9M-48" value="Internet" style="ellipse;shape=cloud;whiteSpace=wrap;html=1;align=center;" vertex="1" parent="1">
          <mxGeometry x="404" y="751" width="100" height="60" as="geometry" />
        </mxCell>
        <mxCell id="5G5CSJDKPbzKHUEFAz9M-51" style="rounded=0;orthogonalLoop=1;jettySize=auto;html=1;" edge="1" parent="1" source="5G5CSJDKPbzKHUEFAz9M-59">
          <mxGeometry relative="1" as="geometry">
            <mxPoint x="171.5" y="781" as="sourcePoint" />
            <mxPoint x="414" y="781" as="targetPoint" />
          </mxGeometry>
        </mxCell>
        <mxCell id="5G5CSJDKPbzKHUEFAz9M-56" value="Powershell IEX" style="edgeLabel;html=1;align=center;verticalAlign=middle;resizable=0;points=[];" vertex="1" connectable="0" parent="5G5CSJDKPbzKHUEFAz9M-51">
          <mxGeometry x="-0.1629" y="1" relative="1" as="geometry">
            <mxPoint x="1" as="offset" />
          </mxGeometry>
        </mxCell>
        <mxCell id="5G5CSJDKPbzKHUEFAz9M-59" value="&lt;div&gt;Windows Server&lt;/div&gt;&lt;div&gt;&lt;br&gt;&lt;/div&gt;" style="sketch=0;outlineConnect=0;fontColor=#232F3E;gradientColor=none;fillColor=#232F3D;strokeColor=none;dashed=0;verticalLabelPosition=bottom;verticalAlign=top;align=center;html=1;fontSize=12;fontStyle=0;aspect=fixed;pointerEvents=1;shape=mxgraph.aws4.traditional_server;" vertex="1" parent="1">
          <mxGeometry x="116.5" y="742" width="45" height="78" as="geometry" />
        </mxCell>
        <mxCell id="5G5CSJDKPbzKHUEFAz9M-60" value="&lt;div&gt;C2 Server&lt;/div&gt;&lt;div&gt;Mythic&lt;/div&gt;&lt;div&gt;&lt;br&gt;&lt;/div&gt;" style="sketch=0;outlineConnect=0;fillColor=light-dark(#c01c28, #512d2b);strokeColor=#b85450;dashed=0;verticalLabelPosition=bottom;verticalAlign=top;align=center;html=1;fontSize=12;fontStyle=0;aspect=fixed;pointerEvents=1;shape=mxgraph.aws4.traditional_server;" vertex="1" parent="1">
          <mxGeometry x="674" y="742" width="45" height="78" as="geometry" />
        </mxCell>
        <mxCell id="5G5CSJDKPbzKHUEFAz9M-68" style="edgeStyle=orthogonalEdgeStyle;rounded=0;orthogonalLoop=1;jettySize=auto;html=1;startArrow=classic;startFill=0;endArrow=none;" edge="1" source="5G5CSJDKPbzKHUEFAz9M-70" target="5G5CSJDKPbzKHUEFAz9M-74" parent="1">
          <mxGeometry relative="1" as="geometry">
            <mxPoint x="685" y="920.0999999999999" as="targetPoint" />
          </mxGeometry>
        </mxCell>
        <mxCell id="5G5CSJDKPbzKHUEFAz9M-69" value="Mythic Agent" style="edgeLabel;html=1;align=center;verticalAlign=middle;resizable=0;points=[];" vertex="1" connectable="0" parent="5G5CSJDKPbzKHUEFAz9M-68">
          <mxGeometry x="-0.0783" relative="1" as="geometry">
            <mxPoint x="7" as="offset" />
          </mxGeometry>
        </mxCell>
        <mxCell id="5G5CSJDKPbzKHUEFAz9M-70" value="Internet" style="ellipse;shape=cloud;whiteSpace=wrap;html=1;align=center;" vertex="1" parent="1">
          <mxGeometry x="405" y="890" width="100" height="60" as="geometry" />
        </mxCell>
        <mxCell id="5G5CSJDKPbzKHUEFAz9M-71" style="rounded=0;orthogonalLoop=1;jettySize=auto;html=1;endArrow=none;startFill=1;startArrow=classic;" edge="1" source="5G5CSJDKPbzKHUEFAz9M-73" parent="1">
          <mxGeometry relative="1" as="geometry">
            <mxPoint x="172.5" y="920" as="sourcePoint" />
            <mxPoint x="415" y="920" as="targetPoint" />
          </mxGeometry>
        </mxCell>
        <mxCell id="5G5CSJDKPbzKHUEFAz9M-73" value="&lt;div&gt;Windows Server&lt;/div&gt;&lt;div&gt;&lt;br&gt;&lt;/div&gt;" style="sketch=0;outlineConnect=0;fontColor=#232F3E;gradientColor=none;fillColor=#232F3D;strokeColor=none;dashed=0;verticalLabelPosition=bottom;verticalAlign=top;align=center;html=1;fontSize=12;fontStyle=0;aspect=fixed;pointerEvents=1;shape=mxgraph.aws4.traditional_server;" vertex="1" parent="1">
          <mxGeometry x="117.5" y="881" width="45" height="78" as="geometry" />
        </mxCell>
        <mxCell id="5G5CSJDKPbzKHUEFAz9M-74" value="&lt;div&gt;C2 Server&lt;/div&gt;&lt;div&gt;Mythic&lt;/div&gt;&lt;div&gt;&lt;br&gt;&lt;/div&gt;" style="sketch=0;outlineConnect=0;fillColor=light-dark(#c01c28, #512d2b);strokeColor=#b85450;dashed=0;verticalLabelPosition=bottom;verticalAlign=top;align=center;html=1;fontSize=12;fontStyle=0;aspect=fixed;pointerEvents=1;shape=mxgraph.aws4.traditional_server;" vertex="1" parent="1">
          <mxGeometry x="675" y="881" width="45" height="78" as="geometry" />
        </mxCell>
        <mxCell id="5G5CSJDKPbzKHUEFAz9M-75" style="edgeStyle=orthogonalEdgeStyle;rounded=0;orthogonalLoop=1;jettySize=auto;html=1;" edge="1" source="5G5CSJDKPbzKHUEFAz9M-77" target="5G5CSJDKPbzKHUEFAz9M-81" parent="1">
          <mxGeometry relative="1" as="geometry">
            <mxPoint x="685" y="1050.1" as="targetPoint" />
          </mxGeometry>
        </mxCell>
        <mxCell id="5G5CSJDKPbzKHUEFAz9M-77" value="Internet" style="ellipse;shape=cloud;whiteSpace=wrap;html=1;align=center;" vertex="1" parent="1">
          <mxGeometry x="405" y="1020" width="100" height="60" as="geometry" />
        </mxCell>
        <mxCell id="5G5CSJDKPbzKHUEFAz9M-78" style="rounded=0;orthogonalLoop=1;jettySize=auto;html=1;" edge="1" source="5G5CSJDKPbzKHUEFAz9M-80" parent="1">
          <mxGeometry relative="1" as="geometry">
            <mxPoint x="172.5" y="1050" as="sourcePoint" />
            <mxPoint x="415" y="1050" as="targetPoint" />
          </mxGeometry>
        </mxCell>
        <mxCell id="5G5CSJDKPbzKHUEFAz9M-82" value="Execute Mythic Agent" style="edgeLabel;html=1;align=center;verticalAlign=middle;resizable=0;points=[];" vertex="1" connectable="0" parent="5G5CSJDKPbzKHUEFAz9M-78">
          <mxGeometry x="-0.0059" y="2" relative="1" as="geometry">
            <mxPoint as="offset" />
          </mxGeometry>
        </mxCell>
        <mxCell id="5G5CSJDKPbzKHUEFAz9M-80" value="&lt;div&gt;Windows Server&lt;/div&gt;&lt;div&gt;&lt;br&gt;&lt;/div&gt;" style="sketch=0;outlineConnect=0;fontColor=#232F3E;gradientColor=none;fillColor=#232F3D;strokeColor=none;dashed=0;verticalLabelPosition=bottom;verticalAlign=top;align=center;html=1;fontSize=12;fontStyle=0;aspect=fixed;pointerEvents=1;shape=mxgraph.aws4.traditional_server;" vertex="1" parent="1">
          <mxGeometry x="117.5" y="1011" width="45" height="78" as="geometry" />
        </mxCell>
        <mxCell id="5G5CSJDKPbzKHUEFAz9M-81" value="&lt;div&gt;C2 Server&lt;/div&gt;&lt;div&gt;Mythic&lt;/div&gt;&lt;div&gt;&lt;br&gt;&lt;/div&gt;" style="sketch=0;outlineConnect=0;fillColor=light-dark(#c01c28, #512d2b);strokeColor=#b85450;dashed=0;verticalLabelPosition=bottom;verticalAlign=top;align=center;html=1;fontSize=12;fontStyle=0;aspect=fixed;pointerEvents=1;shape=mxgraph.aws4.traditional_server;" vertex="1" parent="1">
          <mxGeometry x="675" y="1011" width="45" height="78" as="geometry" />
        </mxCell>
        <mxCell id="5G5CSJDKPbzKHUEFAz9M-83" value="&lt;div&gt;&lt;b&gt;Phase 5&lt;/b&gt;&lt;/div&gt;&lt;div&gt;&lt;b&gt;Command and Control&lt;/b&gt;&lt;/div&gt;" style="text;html=1;align=center;verticalAlign=middle;whiteSpace=wrap;rounded=0;" vertex="1" parent="1">
          <mxGeometry x="370" y="1134" width="140" height="30" as="geometry" />
        </mxCell>
        <mxCell id="5G5CSJDKPbzKHUEFAz9M-84" style="edgeStyle=orthogonalEdgeStyle;rounded=0;orthogonalLoop=1;jettySize=auto;html=1;" edge="1" source="5G5CSJDKPbzKHUEFAz9M-85" target="5G5CSJDKPbzKHUEFAz9M-89" parent="1">
          <mxGeometry relative="1" as="geometry">
            <mxPoint x="684" y="1214.1" as="targetPoint" />
          </mxGeometry>
        </mxCell>
        <mxCell id="5G5CSJDKPbzKHUEFAz9M-85" value="Internet" style="ellipse;shape=cloud;whiteSpace=wrap;html=1;align=center;" vertex="1" parent="1">
          <mxGeometry x="404" y="1184" width="100" height="60" as="geometry" />
        </mxCell>
        <mxCell id="5G5CSJDKPbzKHUEFAz9M-86" style="rounded=0;orthogonalLoop=1;jettySize=auto;html=1;" edge="1" source="5G5CSJDKPbzKHUEFAz9M-88" parent="1">
          <mxGeometry relative="1" as="geometry">
            <mxPoint x="171.5" y="1214" as="sourcePoint" />
            <mxPoint x="414" y="1214" as="targetPoint" />
          </mxGeometry>
        </mxCell>
        <mxCell id="5G5CSJDKPbzKHUEFAz9M-87" value="Establish C2" style="edgeLabel;html=1;align=center;verticalAlign=middle;resizable=0;points=[];" vertex="1" connectable="0" parent="5G5CSJDKPbzKHUEFAz9M-86">
          <mxGeometry x="-0.0059" y="2" relative="1" as="geometry">
            <mxPoint as="offset" />
          </mxGeometry>
        </mxCell>
        <mxCell id="5G5CSJDKPbzKHUEFAz9M-88" value="&lt;div&gt;Windows Server&lt;/div&gt;&lt;div&gt;&lt;br&gt;&lt;/div&gt;" style="sketch=0;outlineConnect=0;fontColor=#232F3E;gradientColor=none;fillColor=#232F3D;strokeColor=none;dashed=0;verticalLabelPosition=bottom;verticalAlign=top;align=center;html=1;fontSize=12;fontStyle=0;aspect=fixed;pointerEvents=1;shape=mxgraph.aws4.traditional_server;" vertex="1" parent="1">
          <mxGeometry x="116.5" y="1175" width="45" height="78" as="geometry" />
        </mxCell>
        <mxCell id="5G5CSJDKPbzKHUEFAz9M-89" value="&lt;div&gt;C2 Server&lt;/div&gt;&lt;div&gt;Mythic&lt;/div&gt;&lt;div&gt;&lt;br&gt;&lt;/div&gt;" style="sketch=0;outlineConnect=0;fillColor=light-dark(#c01c28, #512d2b);strokeColor=#b85450;dashed=0;verticalLabelPosition=bottom;verticalAlign=top;align=center;html=1;fontSize=12;fontStyle=0;aspect=fixed;pointerEvents=1;shape=mxgraph.aws4.traditional_server;" vertex="1" parent="1">
          <mxGeometry x="674" y="1175" width="45" height="78" as="geometry" />
        </mxCell>
        <mxCell id="5G5CSJDKPbzKHUEFAz9M-90" value="&lt;div&gt;&lt;b&gt;Phase 6&lt;/b&gt;&lt;/div&gt;&lt;div&gt;&lt;b&gt;Exfiltration&lt;/b&gt;&lt;/div&gt;" style="text;html=1;align=center;verticalAlign=middle;whiteSpace=wrap;rounded=0;" vertex="1" parent="1">
          <mxGeometry x="370" y="1299" width="140" height="30" as="geometry" />
        </mxCell>
        <mxCell id="5G5CSJDKPbzKHUEFAz9M-91" style="edgeStyle=orthogonalEdgeStyle;rounded=0;orthogonalLoop=1;jettySize=auto;html=1;startArrow=classic;startFill=1;endArrow=none;" edge="1" source="5G5CSJDKPbzKHUEFAz9M-92" target="5G5CSJDKPbzKHUEFAz9M-96" parent="1">
          <mxGeometry relative="1" as="geometry">
            <mxPoint x="683.5" y="1414.1" as="targetPoint" />
          </mxGeometry>
        </mxCell>
        <mxCell id="5G5CSJDKPbzKHUEFAz9M-97" value="Download Passwords.txt" style="edgeLabel;html=1;align=center;verticalAlign=middle;resizable=0;points=[];" vertex="1" connectable="0" parent="5G5CSJDKPbzKHUEFAz9M-91">
          <mxGeometry x="0.1118" y="-1" relative="1" as="geometry">
            <mxPoint y="-1" as="offset" />
          </mxGeometry>
        </mxCell>
        <mxCell id="5G5CSJDKPbzKHUEFAz9M-92" value="Internet" style="ellipse;shape=cloud;whiteSpace=wrap;html=1;align=center;" vertex="1" parent="1">
          <mxGeometry x="403.5" y="1384" width="100" height="60" as="geometry" />
        </mxCell>
        <mxCell id="5G5CSJDKPbzKHUEFAz9M-93" style="rounded=0;orthogonalLoop=1;jettySize=auto;html=1;endArrow=none;startFill=1;startArrow=classic;" edge="1" source="5G5CSJDKPbzKHUEFAz9M-95" parent="1">
          <mxGeometry relative="1" as="geometry">
            <mxPoint x="171" y="1414" as="sourcePoint" />
            <mxPoint x="413.5" y="1414" as="targetPoint" />
          </mxGeometry>
        </mxCell>
        <mxCell id="5G5CSJDKPbzKHUEFAz9M-95" value="&lt;div&gt;Windows Server&lt;/div&gt;&lt;div&gt;&lt;br&gt;&lt;/div&gt;" style="sketch=0;outlineConnect=0;fontColor=#232F3E;gradientColor=none;fillColor=#232F3D;strokeColor=none;dashed=0;verticalLabelPosition=bottom;verticalAlign=top;align=center;html=1;fontSize=12;fontStyle=0;aspect=fixed;pointerEvents=1;shape=mxgraph.aws4.traditional_server;" vertex="1" parent="1">
          <mxGeometry x="116" y="1375" width="45" height="78" as="geometry" />
        </mxCell>
        <mxCell id="5G5CSJDKPbzKHUEFAz9M-96" value="&lt;div&gt;C2 Server&lt;/div&gt;&lt;div&gt;Mythic&lt;/div&gt;&lt;div&gt;&lt;br&gt;&lt;/div&gt;" style="sketch=0;outlineConnect=0;fillColor=light-dark(#c01c28, #512d2b);strokeColor=#b85450;dashed=0;verticalLabelPosition=bottom;verticalAlign=top;align=center;html=1;fontSize=12;fontStyle=0;aspect=fixed;pointerEvents=1;shape=mxgraph.aws4.traditional_server;" vertex="1" parent="1">
          <mxGeometry x="673.5" y="1375" width="45" height="78" as="geometry" />
        </mxCell>
        <mxCell id="5G5CSJDKPbzKHUEFAz9M-98" value="&lt;div&gt;Create fake password file called passwords.txt&lt;/div&gt;&lt;div&gt;&lt;br&gt;&lt;/div&gt;" style="text;html=1;align=center;verticalAlign=middle;whiteSpace=wrap;rounded=0;" vertex="1" parent="1">
          <mxGeometry x="353" y="1344" width="180" height="30" as="geometry" />
        </mxCell>
        <mxCell id="5G5CSJDKPbzKHUEFAz9M-99" value="ATTACK DIAGRAM" style="text;html=1;align=center;verticalAlign=middle;whiteSpace=wrap;rounded=0;fontStyle=1" vertex="1" parent="1">
          <mxGeometry x="344" y="10" width="162.5" height="30" as="geometry" />
        </mxCell>
      </root>
    </mxGraphModel>
  </diagram>
</mxfile>
